<svg xmlns="http://www.w3.org/2000/svg" xmlns:xlink="http://www.w3.org/1999/xlink" viewBox="0 0 17.11 21.65"><defs><style>.cls-1{fill:url(#linear-gradient);}.cls-2{fill:url(#linear-gradient-2);}</style><linearGradient id="linear-gradient" x1="-5.93" y1="16.71" x2="20.27" y2="16.71" gradientTransform="translate(25.19 18.17) rotate(137.04)" gradientUnits="userSpaceOnUse"><stop offset="0" stop-color="#969696"/><stop offset="0.22" stop-color="#8d8d8d"/><stop offset="0.59" stop-color="#747574"/><stop offset="1" stop-color="#515251"/></linearGradient><linearGradient id="linear-gradient-2" x1="-29.54" y1="-5.27" x2="-3.34" y2="-5.27" gradientTransform="matrix(0.73, 0.68, 0.68, -0.73, 24.18, 18.17)" xlink:href="#linear-gradient"/></defs><g id="Layer_2" data-name="Layer 2"><g id="Layer_1-2" data-name="Layer 1"><path class="cls-1" d="M.12,20.06,16,.14a.32.32,0,0,1,.54,0l.48.7a.63.63,0,0,1,0,.73L1.12,21.51a.31.31,0,0,1-.53,0l-.49-.7A.67.67,0,0,1,.12,20.06Z"/><path class="cls-2" d="M17,20.06,1.12.14a.31.31,0,0,0-.53,0L.1.86a.67.67,0,0,0,0,.73L16,21.51a.32.32,0,0,0,.54,0l.48-.7A.63.63,0,0,0,17,20.06Z"/></g></g></svg>